<mxfile host="app.diagrams.net" modified="2023-11-17T07:31:16.605Z" agent="Mozilla/5.0 (Windows NT 10.0; Win64; x64) AppleWebKit/537.36 (KHTML, like Gecko) Chrome/119.0.0.0 Safari/537.36" etag="kBEzj5VIoFiiTHP-BlDT" version="22.1.2" type="github">
  <diagram name="Page-1" id="52a04d89-c75d-2922-d76d-85b35f80e030">
    <mxGraphModel dx="1674" dy="806" grid="1" gridSize="10" guides="1" tooltips="1" connect="1" arrows="1" fold="1" page="1" pageScale="1" pageWidth="1100" pageHeight="850" background="none" math="0" shadow="0">
      <root>
        <mxCell id="0" />
        <mxCell id="1" parent="0" />
        <mxCell id="lJfVH2PcpbwFIw8i-7xQ-3" value="" style="edgeStyle=orthogonalEdgeStyle;rounded=0;orthogonalLoop=1;jettySize=auto;html=1;" edge="1" parent="1" source="lJfVH2PcpbwFIw8i-7xQ-1" target="lJfVH2PcpbwFIw8i-7xQ-2">
          <mxGeometry relative="1" as="geometry" />
        </mxCell>
        <mxCell id="lJfVH2PcpbwFIw8i-7xQ-1" value="TW 第三方" style="rounded=1;whiteSpace=wrap;html=1;" vertex="1" parent="1">
          <mxGeometry x="28" y="173" width="120" height="60" as="geometry" />
        </mxCell>
        <mxCell id="lJfVH2PcpbwFIw8i-7xQ-5" value="" style="edgeStyle=orthogonalEdgeStyle;rounded=0;orthogonalLoop=1;jettySize=auto;html=1;" edge="1" parent="1" source="lJfVH2PcpbwFIw8i-7xQ-2" target="lJfVH2PcpbwFIw8i-7xQ-4">
          <mxGeometry relative="1" as="geometry" />
        </mxCell>
        <mxCell id="lJfVH2PcpbwFIw8i-7xQ-2" value="TPM" style="rounded=1;whiteSpace=wrap;html=1;" vertex="1" parent="1">
          <mxGeometry x="228" y="173" width="120" height="60" as="geometry" />
        </mxCell>
        <mxCell id="lJfVH2PcpbwFIw8i-7xQ-4" value="CT controller" style="rounded=1;whiteSpace=wrap;html=1;" vertex="1" parent="1">
          <mxGeometry x="490" y="173" width="120" height="60" as="geometry" />
        </mxCell>
        <mxCell id="lJfVH2PcpbwFIw8i-7xQ-6" value="CT" style="rounded=0;whiteSpace=wrap;html=1;" vertex="1" parent="1">
          <mxGeometry x="780" y="93" width="120" height="60" as="geometry" />
        </mxCell>
        <mxCell id="lJfVH2PcpbwFIw8i-7xQ-7" value="Earmarking&lt;br&gt;(mongo)" style="rounded=0;whiteSpace=wrap;html=1;" vertex="1" parent="1">
          <mxGeometry x="780" y="203" width="120" height="60" as="geometry" />
        </mxCell>
        <mxCell id="lJfVH2PcpbwFIw8i-7xQ-10" value="" style="line;strokeWidth=2;direction=south;html=1;" vertex="1" parent="1">
          <mxGeometry x="660" y="123" width="10" height="670" as="geometry" />
        </mxCell>
        <mxCell id="lJfVH2PcpbwFIw8i-7xQ-12" value="" style="edgeStyle=segmentEdgeStyle;endArrow=classic;html=1;curved=0;rounded=0;endSize=8;startSize=8;entryX=0;entryY=0.5;entryDx=0;entryDy=0;exitX=0;exitY=0.5;exitDx=0;exitDy=0;exitPerimeter=0;" edge="1" parent="1" source="lJfVH2PcpbwFIw8i-7xQ-10" target="lJfVH2PcpbwFIw8i-7xQ-6">
          <mxGeometry width="50" height="50" relative="1" as="geometry">
            <mxPoint x="665" y="102.28932188134524" as="sourcePoint" />
            <mxPoint x="665" y="52.289321881345245" as="targetPoint" />
          </mxGeometry>
        </mxCell>
        <mxCell id="lJfVH2PcpbwFIw8i-7xQ-13" value="Inventory Status&lt;br&gt;(New Inventory)" style="rounded=0;whiteSpace=wrap;html=1;" vertex="1" parent="1">
          <mxGeometry x="780" y="323" width="120" height="60" as="geometry" />
        </mxCell>
        <mxCell id="lJfVH2PcpbwFIw8i-7xQ-14" value="Customer Service&lt;br&gt;(SD)" style="rounded=0;whiteSpace=wrap;html=1;" vertex="1" parent="1">
          <mxGeometry x="780" y="423" width="120" height="60" as="geometry" />
        </mxCell>
        <mxCell id="lJfVH2PcpbwFIw8i-7xQ-15" value="Customer Service" style="rounded=0;whiteSpace=wrap;html=1;" vertex="1" parent="1">
          <mxGeometry x="780" y="543" width="120" height="60" as="geometry" />
        </mxCell>
        <mxCell id="lJfVH2PcpbwFIw8i-7xQ-16" value="Payment/Receipt txn&lt;br&gt;(Pending)" style="rounded=0;whiteSpace=wrap;html=1;" vertex="1" parent="1">
          <mxGeometry x="780" y="643" width="120" height="60" as="geometry" />
        </mxCell>
        <mxCell id="lJfVH2PcpbwFIw8i-7xQ-17" value="Discount calculator&lt;br&gt;(Validations)" style="rounded=0;whiteSpace=wrap;html=1;" vertex="1" parent="1">
          <mxGeometry x="780" y="753" width="120" height="60" as="geometry" />
        </mxCell>
        <mxCell id="lJfVH2PcpbwFIw8i-7xQ-18" value="" style="endArrow=classic;html=1;rounded=0;exitX=1;exitY=0.5;exitDx=0;exitDy=0;entryX=0.119;entryY=0.6;entryDx=0;entryDy=0;entryPerimeter=0;" edge="1" parent="1" source="lJfVH2PcpbwFIw8i-7xQ-4" target="lJfVH2PcpbwFIw8i-7xQ-10">
          <mxGeometry width="50" height="50" relative="1" as="geometry">
            <mxPoint x="630" y="213" as="sourcePoint" />
            <mxPoint x="680" y="163" as="targetPoint" />
          </mxGeometry>
        </mxCell>
        <mxCell id="lJfVH2PcpbwFIw8i-7xQ-19" value="" style="endArrow=classic;html=1;rounded=0;exitX=0.343;exitY=0.6;exitDx=0;exitDy=0;exitPerimeter=0;" edge="1" parent="1" source="lJfVH2PcpbwFIw8i-7xQ-10">
          <mxGeometry width="50" height="50" relative="1" as="geometry">
            <mxPoint x="730" y="403" as="sourcePoint" />
            <mxPoint x="780" y="353" as="targetPoint" />
          </mxGeometry>
        </mxCell>
        <mxCell id="lJfVH2PcpbwFIw8i-7xQ-20" value="" style="endArrow=classic;html=1;rounded=0;entryX=-0.008;entryY=0.617;entryDx=0;entryDy=0;entryPerimeter=0;exitX=0.172;exitY=0;exitDx=0;exitDy=0;exitPerimeter=0;" edge="1" parent="1" source="lJfVH2PcpbwFIw8i-7xQ-10" target="lJfVH2PcpbwFIw8i-7xQ-7">
          <mxGeometry width="50" height="50" relative="1" as="geometry">
            <mxPoint x="670" y="243" as="sourcePoint" />
            <mxPoint x="710" y="193" as="targetPoint" />
          </mxGeometry>
        </mxCell>
        <mxCell id="lJfVH2PcpbwFIw8i-7xQ-21" value="" style="endArrow=classic;html=1;rounded=0;exitX=0.491;exitY=0.7;exitDx=0;exitDy=0;exitPerimeter=0;" edge="1" parent="1" source="lJfVH2PcpbwFIw8i-7xQ-10">
          <mxGeometry width="50" height="50" relative="1" as="geometry">
            <mxPoint x="666" y="468.4000000000001" as="sourcePoint" />
            <mxPoint x="780" y="450" as="targetPoint" />
          </mxGeometry>
        </mxCell>
        <mxCell id="lJfVH2PcpbwFIw8i-7xQ-22" value="" style="endArrow=classic;html=1;rounded=0;entryX=-0.05;entryY=0.65;entryDx=0;entryDy=0;entryPerimeter=0;" edge="1" parent="1" target="lJfVH2PcpbwFIw8i-7xQ-15">
          <mxGeometry width="50" height="50" relative="1" as="geometry">
            <mxPoint x="670" y="583" as="sourcePoint" />
            <mxPoint x="720" y="533" as="targetPoint" />
          </mxGeometry>
        </mxCell>
        <mxCell id="lJfVH2PcpbwFIw8i-7xQ-23" value="" style="endArrow=classic;html=1;rounded=0;exitX=0.825;exitY=0.7;exitDx=0;exitDy=0;exitPerimeter=0;" edge="1" parent="1" source="lJfVH2PcpbwFIw8i-7xQ-10">
          <mxGeometry width="50" height="50" relative="1" as="geometry">
            <mxPoint x="670" y="681" as="sourcePoint" />
            <mxPoint x="780" y="676" as="targetPoint" />
          </mxGeometry>
        </mxCell>
        <mxCell id="lJfVH2PcpbwFIw8i-7xQ-24" value="" style="endArrow=classic;html=1;rounded=0;exitX=1;exitY=0.5;exitDx=0;exitDy=0;exitPerimeter=0;entryX=-0.033;entryY=0.633;entryDx=0;entryDy=0;entryPerimeter=0;" edge="1" parent="1" source="lJfVH2PcpbwFIw8i-7xQ-10" target="lJfVH2PcpbwFIw8i-7xQ-17">
          <mxGeometry width="50" height="50" relative="1" as="geometry">
            <mxPoint x="730" y="813" as="sourcePoint" />
            <mxPoint x="780" y="763" as="targetPoint" />
          </mxGeometry>
        </mxCell>
        <mxCell id="lJfVH2PcpbwFIw8i-7xQ-25" value="CT &amp;amp; CT line booking" style="text;html=1;align=center;verticalAlign=middle;resizable=0;points=[];autosize=1;strokeColor=none;fillColor=none;" vertex="1" parent="1">
          <mxGeometry x="590" y="71" width="140" height="30" as="geometry" />
        </mxCell>
        <mxCell id="lJfVH2PcpbwFIw8i-7xQ-26" value="txn code: HC &amp;amp; HD" style="text;html=1;align=center;verticalAlign=middle;resizable=0;points=[];autosize=1;strokeColor=none;fillColor=none;" vertex="1" parent="1">
          <mxGeometry x="900" y="108" width="120" height="30" as="geometry" />
        </mxCell>
        <mxCell id="lJfVH2PcpbwFIw8i-7xQ-27" value="Event: Earmarking byCTline" style="text;html=1;align=center;verticalAlign=middle;resizable=0;points=[];autosize=1;strokeColor=none;fillColor=none;" vertex="1" parent="1">
          <mxGeometry x="900" y="211" width="170" height="30" as="geometry" />
        </mxCell>
        <mxCell id="lJfVH2PcpbwFIw8i-7xQ-29" value="Ubdate inventoryStatus for&quot;Item&quot;" style="text;html=1;align=center;verticalAlign=middle;resizable=0;points=[];autosize=1;strokeColor=none;fillColor=none;" vertex="1" parent="1">
          <mxGeometry x="590" y="321" width="200" height="30" as="geometry" />
        </mxCell>
        <mxCell id="lJfVH2PcpbwFIw8i-7xQ-30" value="Earmarkingbooking unit" style="text;html=1;align=center;verticalAlign=middle;resizable=0;points=[];autosize=1;strokeColor=none;fillColor=none;" vertex="1" parent="1">
          <mxGeometry x="635" y="203" width="150" height="30" as="geometry" />
        </mxCell>
        <mxCell id="lJfVH2PcpbwFIw8i-7xQ-31" value="Reserve SD" style="text;html=1;align=center;verticalAlign=middle;resizable=0;points=[];autosize=1;strokeColor=none;fillColor=none;" vertex="1" parent="1">
          <mxGeometry x="675" y="421" width="90" height="30" as="geometry" />
        </mxCell>
        <mxCell id="lJfVH2PcpbwFIw8i-7xQ-32" value="Check/createcustomer maste" style="text;html=1;align=center;verticalAlign=middle;resizable=0;points=[];autosize=1;strokeColor=none;fillColor=none;" vertex="1" parent="1">
          <mxGeometry x="610" y="551" width="180" height="30" as="geometry" />
        </mxCell>
        <mxCell id="lJfVH2PcpbwFIw8i-7xQ-33" value="Create PendingPayment/Receipt Txn" style="text;html=1;align=center;verticalAlign=middle;resizable=0;points=[];autosize=1;strokeColor=none;fillColor=none;" vertex="1" parent="1">
          <mxGeometry x="610" y="631" width="220" height="30" as="geometry" />
        </mxCell>
        <mxCell id="lJfVH2PcpbwFIw8i-7xQ-34" value="Validate theagreed price" style="text;html=1;align=center;verticalAlign=middle;resizable=0;points=[];autosize=1;strokeColor=none;fillColor=none;" vertex="1" parent="1">
          <mxGeometry x="635" y="761" width="150" height="30" as="geometry" />
        </mxCell>
        <mxCell id="lJfVH2PcpbwFIw8i-7xQ-35" value="Event: Update Item&#39;snventory status=Salesocking" style="text;html=1;align=center;verticalAlign=middle;resizable=0;points=[];autosize=1;strokeColor=none;fillColor=none;" vertex="1" parent="1">
          <mxGeometry x="900" y="338" width="290" height="30" as="geometry" />
        </mxCell>
        <mxCell id="lJfVH2PcpbwFIw8i-7xQ-36" value="Event:Reserve used SD by CT line" style="text;html=1;align=center;verticalAlign=middle;resizable=0;points=[];autosize=1;strokeColor=none;fillColor=none;" vertex="1" parent="1">
          <mxGeometry x="920" y="433" width="210" height="30" as="geometry" />
        </mxCell>
        <mxCell id="lJfVH2PcpbwFIw8i-7xQ-37" value="Event.Check/createcustomer master" style="text;html=1;align=center;verticalAlign=middle;resizable=0;points=[];autosize=1;strokeColor=none;fillColor=none;" vertex="1" parent="1">
          <mxGeometry x="900" y="558" width="220" height="30" as="geometry" />
        </mxCell>
        <mxCell id="lJfVH2PcpbwFIw8i-7xQ-38" value="Event:Create payment setl &amp;amp;Receipt Txn" style="text;html=1;align=center;verticalAlign=middle;resizable=0;points=[];autosize=1;strokeColor=none;fillColor=none;" vertex="1" parent="1">
          <mxGeometry x="910" y="658" width="240" height="30" as="geometry" />
        </mxCell>
        <mxCell id="lJfVH2PcpbwFIw8i-7xQ-39" value="Create CT" style="text;html=1;align=center;verticalAlign=middle;resizable=0;points=[];autosize=1;strokeColor=none;fillColor=none;" vertex="1" parent="1">
          <mxGeometry x="138" y="158" width="80" height="30" as="geometry" />
        </mxCell>
        <mxCell id="lJfVH2PcpbwFIw8i-7xQ-40" value="&lt;div&gt;&lt;b&gt;1.Proceeding to Payment Gateway&lt;/b&gt;&lt;/div&gt;&lt;div&gt;&lt;b&gt;CT&amp;amp; CT line booking&lt;/b&gt;&lt;/div&gt;" style="text;html=1;align=center;verticalAlign=middle;resizable=0;points=[];autosize=1;strokeColor=none;fillColor=none;" vertex="1" parent="1">
          <mxGeometry x="10" y="13" width="220" height="40" as="geometry" />
        </mxCell>
        <mxCell id="lJfVH2PcpbwFIw8i-7xQ-42" value="" style="endArrow=classic;html=1;rounded=0;exitX=0;exitY=0.75;exitDx=0;exitDy=0;entryX=1;entryY=0.75;entryDx=0;entryDy=0;" edge="1" parent="1" source="lJfVH2PcpbwFIw8i-7xQ-4" target="lJfVH2PcpbwFIw8i-7xQ-2">
          <mxGeometry width="50" height="50" relative="1" as="geometry">
            <mxPoint x="350" y="330" as="sourcePoint" />
            <mxPoint x="400" y="280" as="targetPoint" />
          </mxGeometry>
        </mxCell>
        <mxCell id="lJfVH2PcpbwFIw8i-7xQ-44" value="Return CT No.&amp;amp;Receipt Txn no." style="text;html=1;align=center;verticalAlign=middle;resizable=0;points=[];autosize=1;strokeColor=none;fillColor=none;" vertex="1" parent="1">
          <mxGeometry x="345" y="218" width="190" height="30" as="geometry" />
        </mxCell>
        <mxCell id="lJfVH2PcpbwFIw8i-7xQ-45" value="1. Create CT" style="text;html=1;align=center;verticalAlign=middle;resizable=0;points=[];autosize=1;strokeColor=none;fillColor=none;" vertex="1" parent="1">
          <mxGeometry x="345" y="168" width="90" height="30" as="geometry" />
        </mxCell>
      </root>
    </mxGraphModel>
  </diagram>
</mxfile>
